<svg version="1.2" xmlns="http://www.w3.org/2000/svg" viewBox="0 0 2560 575" width="2560" height="575">
	<style>
		.s0 { fill: #9d493f } 
		.s1 { fill: #3e67a7 } 
	</style>
	<path id="Red_HBar" fill-rule="evenodd" class="s0" d="m1472.5 511.3v49.7c0 7.73-6.27 14-14 14h-1444.5c-7.73 0-14-6.27-14-14v-49.7c0-7.73 6.27-14 14-14h1444.5c7.73 0 14 6.27 14 14z"/>
	<path id="Blue_HBar" fill-rule="evenodd" class="s1" d="m2560 14v49.7c0 7.73-6.27 14-14 14h-1135.75c-7.73 0-14-6.27-14-14v-49.7c0-7.73 6.27-14 14-14h1135.75c7.73 0 14 6.27 14 14z"/>
	<path id="Red_VBar" fill-rule="evenodd" class="s0" d="m1459.34 575h-49.62c-7.73 0-14-6.27-14-14v-260c0-7.73 6.27-14 14-14h49.62c7.73 0 14 6.27 14 14v260c0 7.73-6.27 14-14 14z"/>
	<path id="Blue_VBar" fill-rule="evenodd" class="s1" d="m1459.34 287h-49.62c-7.73 0-14-6.27-14-14v-259c0-7.73 6.27-14 14-14h49.62c7.73 0 14 6.27 14 14v259c0 7.73-6.27 14-14 14z"/>
	<path id="DOR" class="s1" d="m1681.5 459h-73.3q-24.6 0-37.5-6.2-12.7-6.2-17.2-20.3-4.3-14.1-4.3-37.6v-214.6q0-23.9 4.3-37.8 4.5-14.1 17.2-20 12.9-6.2 37.5-6.2h73.3q51.3 0 89.7 15.2 38.7 15.3 60.2 51.9 21.5 36.3 21.5 99.9 0 63.6-21.5 102.3-21.5 38.5-60.2 56-38.4 17.4-89.7 17.4zm-17.5-279.9h-10.5q-15.7 0-21.5 6.7-5.7 6.7-5.7 23v157.7q0 16 5.7 22.9 5.8 7 21.5 7h11q51.1 0 79-25.1 28.2-25.1 28.2-87 0-41.4-12.9-64.1-12.6-22.9-36.7-32-24.2-9.1-58.1-9.1zm395 285.9q-49.6 0-86.4-19.1-36.8-19.2-57.1-57.6-20-38.5-20-96.1 0-91.6 44.6-136.5 44.7-45.2 124.4-45.2 74.8 0 118.2 44.2 43.5 44 43.5 130.5 0 61.2-20.3 101.1-20.3 39.7-57.8 59.3-37.5 19.4-89.1 19.4zm1.5-64.6q42.9 0 63.7-30.8 20.8-30.8 20.8-80.1 0-57.1-19.6-85.8-19.6-28.7-63-28.7-85.7 0-85.7 113.1 0 50.4 20.5 81.5 20.8 30.8 63.3 30.8zm302.8-195.2v241.1q0 7.2-3.1 10.1-2.8 2.6-10 2.6h-50.9q-7.1 0-10.2-2.6-2.9-2.9-2.9-10.1v-266q0-23.9 4.3-37.8 4.5-14.1 17.2-20 12.9-6.2 37.5-6.2h63.2q124.7 0 124.7 95.8 0 29.2-9.8 47.8-9.8 18.6-24.4 29.2-14.5 10.2-28.6 15.5v1.2q16 10.5 30.3 27.7 14.6 17 26.3 37.1 11.7 19.8 19.8 39.4 8.1 19.4 11.2 34.7 1.4 7.1 0 10.7-1.2 3.6-8.1 3.6h-55.2q-6.2 0-10.9-2.6-4.6-2.7-8.4-12.2-18.1-45.7-41.8-74.4-23.6-28.9-45.6-46.3-14.1-11.3-14.1-16 0-3.9 4.6-10.6 2.8-4 8.3-9.8 5.5-5.7 9.6-8.6 4-2.8 6.4-3.5 2.6-0.8 7.9-0.8 17.7 0 29.4-12.1 11.9-12.2 11.9-38.5 0-24.9-12.7-36.4-12.4-11.7-34.3-11.7h-14.4q-15.7 0-21.5 6.7-5.7 6.7-5.7 23z"/>
	<path id="CHOR" class="s0" d="m160.9 402.4q17.5 0 27.3-3.5 10-3.6 15.5-8.9 5.5-5.2 9.5-10.5 3.8-4.8 6.2-7.2 2.7-2.4 7.2-3.3 3.8-1.2 12.2-1.5 8.6-0.4 16.9-0.4 8.6 0 12 0.4 5 0.3 6.9 2 1.9 1.6 2.4 7.1 0.7 7.7 0.7 18.2 0.2 10.5-0.3 18.2-0.2 2.3-0.9 4-0.5 1.7-2.4 5-2.4 3.9-9.3 11.3-6.9 7.1-20.3 15-13.4 7.7-34.6 13.2-21 5.5-51.8 5.5-33 0-61.6-8.4-28.7-8.6-50.4-28.7-21.5-20-33.7-54.2-11.9-34.2-11.9-85.4 0-56.8 19.6-96.5 19.8-39.9 56.1-60.7 36.3-20.8 85.9-20.8 34.9 0 55.9 7.1 21.2 7.2 32.2 17 11 9.6 15.5 16.7 1.7 2.7 2.4 4.8 0.8 1.9 1 6.2 0.7 5.8 0.2 16.8-0.2 11-1.6 19.3-1 5.3-3.1 7-1 0.9-3.4 1.6-2.4 0.8-7.2 0.8-7.6 0-17.1-0.5-9.6-0.7-14.4-1.5-5.7-0.9-8.3-2.6-2.7-1.9-5.3-5.7-4.3-6.2-14.8-14.4-10.5-8.1-34.6-8.1-33.9 0-55.9 26.3-21.9 26.1-21.9 84.6 0 58.3 22.9 86.5 23.1 28.2 56.3 28.2zm388.2-147.4v-98.5q0-6.9 2.4-10.5 10.8-15.8 30.1-33.2 3.6-2.9 6.2-2.9 2.9 0 6 2.9 10.5 9 17.7 17.4 7.1 8.1 12.4 15.8 2.4 3.8 2.4 10.5v291.8q0 7.2-3.1 10.1-2.9 2.6-10.1 2.6h-50.8q-7.2 0-10.3-2.6-2.9-2.9-2.9-10.1v-126.9h-141.8v126.9q0 7.2-3.1 10.1-2.8 2.6-10 2.6h-50.9q-7.1 0-10.2-2.6-2.9-2.9-2.9-10.1v-317.4q0-7.2 2.9-9.8 3.1-2.8 10.2-2.8h50.9q7.2 0 10 2.8 3.1 2.6 3.1 9.8v124.1zm300.9 212q-49.6 0-86.4-19.1-36.8-19.2-57.1-57.6-20-38.5-20-96.1 0-91.6 44.6-136.5 44.7-45.2 124.4-45.2 74.7 0 118.2 44.2 43.4 44 43.4 130.5 0 61.2-20.2 101.1-20.3 39.7-57.8 59.3-37.5 19.4-89.1 19.4zm1.4-64.6q43 0 63.8-30.8 20.8-30.8 20.8-80.1 0-57.1-19.6-85.8-19.6-28.7-63-28.7-85.8 0-85.8 113.1 0 50.4 20.6 81.5 20.7 30.8 63.2 30.8zm301.9-195.2v241.1q0 7.2-3.1 10.1-2.9 2.6-10 2.6h-50.9q-7.2 0-10.3-2.6-2.8-2.9-2.8-10.1v-266q0-23.9 4.3-37.8 4.5-14.1 17.2-20 12.9-6.2 37.5-6.2h63.2q124.7 0 124.7 95.8 0 29.2-9.8 47.8-9.8 18.6-24.4 29.2-14.6 10.2-28.6 15.5v1.2q16 10.5 30.3 27.7 14.5 17 26.2 37.1 11.7 19.8 19.9 39.4 8.1 19.4 11.2 34.7 1.4 7.1 0 10.7-1.2 3.6-8.1 3.6h-55.2q-6.2 0-11-2.6-4.5-2.7-8.3-12.2-18.2-45.7-41.8-74.4-23.6-28.9-45.6-46.3-14.1-11.3-14.1-16 0-3.9 4.5-10.6 2.9-4 8.4-9.8 5.5-5.7 9.5-8.6 4.1-2.8 6.5-3.5 2.6-0.8 7.9-0.8 17.6 0 29.3-12.1 12-12.2 12-38.5 0-24.9-12.7-36.4-12.4-11.7-34.4-11.7h-14.3q-15.7 0-21.5 6.7-5.7 6.7-5.7 23z"/>
</svg>