<svg version="1.2" xmlns="http://www.w3.org/2000/svg" viewBox="0 0 2048 2048" width="2048" height="2048">
	<style>
		.s0 { fill: #9d493f } 
		.s1 { fill: #3e67a7 } 
	</style>
	<path id="CHORI" class="s0" aria-label="CHORI"  d="m223.9 896.6q24.2 0 37.9-5 13.9-5 21.5-12.3 7.7-7.3 13.3-14.6 5.3-6.6 8.6-10 3.7-3.3 10-4.6 5.3-1.7 16.9-2 12-0.7 23.6-0.7 11.9 0 16.6 0.7 6.9 0.3 9.6 2.6 2.7 2.4 3.3 10 1 10.6 1 25.3 0.3 14.6-0.3 25.2-0.3 3.3-1.3 5.7-0.7 2.3-3.4 6.9-3.3 5.4-12.9 15.7-9.6 9.9-28.2 20.9-18.6 10.6-48.1 18.3-29.3 7.6-72.1 7.6-45.8 0-85.6-11.6-39.8-12-70-39.9-29.9-27.9-46.8-75.4-16.6-47.5-16.6-118.6 0-79.1 27.2-134.3 27.5-55.5 78-84.4 50.4-28.9 119.5-28.9 48.4 0 77.6 10 29.6 10 44.8 23.6 15.3 13.3 21.6 23.2 2.3 3.7 3.3 6.7 1 2.6 1.4 8.6 1 8 0.3 23.3-0.3 15.3-2.3 26.9-1.4 7.3-4.3 9.6-1.4 1.4-4.7 2.4-3.3 1-9.9 1-10.7 0-23.9-0.7-13.3-1-20-2-7.9-1.3-11.6-3.7-3.6-2.6-7.3-7.9-5.9-8.7-20.6-20-14.6-11.3-48.1-11.3-47.1 0-77.6 36.6-30.6 36.2-30.6 117.6 0 81.1 31.9 120.3 32.2 39.2 78.3 39.2zm539.6-205v-136.9q0-9.6 3.3-14.6 14.9-22 41.8-46.2 5-4 8.6-4 4 0 8.3 4 14.6 12.6 24.6 24.2 10 11.3 17.3 22 3.3 5.3 3.3 14.6v405.7q0 10-4.3 13.9-4 3.7-14 3.7h-70.7q-9.9 0-14.3-3.7-3.9-3.9-3.9-13.9v-176.4h-197.2v176.4q0 10-4.3 13.9-4 3.7-13.9 3.7h-70.7q-10 0-14.3-3.7-4-3.9-4-13.9v-441.3q0-9.9 4-13.6 4.3-4 14.3-4h70.7q9.9 0 13.9 4 4.3 3.7 4.3 13.6v172.5zm417.8 294.7q-69.1 0-120.2-26.6-51.1-26.6-79.3-80.1-27.9-53.4-27.9-133.5 0-127.3 62.1-189.7 62.1-62.8 172.9-62.8 103.9 0 164.3 61.4 60.4 61.2 60.4 181.4 0 85.1-28.2 140.6-28.2 55.1-80.3 82.4-52.1 26.9-123.8 26.9zm2-89.7q59.7 0 88.6-42.9 28.9-42.8 28.9-111.3 0-79.4-27.3-119.3-27.2-39.8-87.6-39.8-119.1 0-119.1 157.1 0 70.1 28.5 113.3 28.9 42.9 88 42.9zm421.1-271.5v335.3q0 10-4.4 13.9-3.9 3.7-13.9 3.7h-70.7q-10 0-14.3-3.7-3.9-3.9-3.9-13.9v-369.8q0-33.3 5.9-52.5 6.3-19.6 23.9-27.9 17.9-8.7 52.1-8.7h88q173.2 0 173.2 133.3 0 40.5-13.6 66.4-13.6 25.9-33.8 40.6-20.3 14.2-39.8 21.6v1.6q22.2 14.6 42.1 38.6 20.3 23.6 36.5 51.5 16.3 27.5 27.6 54.8 11.2 26.9 15.6 48.2 2 9.9 0 14.9-1.7 5-11.3 5h-76.7q-8.6 0-15.3-3.7-6.3-3.6-11.6-16.9-25.2-63.5-58.1-103.3-32.8-40.2-63.4-64.5-19.5-15.6-19.5-22.3 0-5.3 6.3-14.6 4-5.6 11.6-13.6 7.6-8 13.3-12 5.6-3.9 8.9-4.9 3.7-1 11-1 24.5 0 40.8-17 16.6-16.9 16.6-53.5 0-34.5-17.6-50.5-17.3-16.3-47.8-16.3h-19.9q-21.9 0-29.9 9.3-7.9 9.3-7.9 31.9zm443-70.4v405.7q0 10-4.4 13.9-3.9 3.7-13.9 3.7h-70.7q-10 0-14.3-3.7-3.9-3.9-3.9-13.9v-405.7q0-9.6 3.3-14.6 14.9-22 41.8-46.2 5-4 8.6-4 4 0 8.3 4 14.6 12.6 24.6 24.2 9.9 11.3 17.2 22 3.4 5.3 3.4 14.6z"/>
	<path id="D" class="s1" aria-label="D"  d="m643 1547h-101.9q-34.2 0-52.1-8.6-17.6-8.7-23.9-28.3-6-19.6-6-52.1v-298.4q0-33.3 6-52.5 6.3-19.6 23.9-27.9 17.9-8.7 52.1-8.7h101.9q71.3 0 124.8 21.3 53.8 21.3 83.6 72.1 29.9 50.5 29.9 138.9 0 88.4-29.9 142.2-29.8 53.5-83.6 77.7-53.5 24.3-124.8 24.3zm-24.2-389.1h-14.6q-22 0-29.9 9.3-8 9.3-8 31.9v219.3q0 22.3 8 31.9 7.9 9.6 29.9 9.6h15.2q71 0 109.9-34.8 39.1-34.9 39.1-121 0-57.5-17.9-89-17.6-31.9-51.1-44.6-33.5-12.6-80.6-12.6z"/>
	<path id="O" class="s1" aria-label="O"  d="m1181.2 1555.3q-69 0-120.1-26.6-51.1-26.6-79.3-80.1-27.9-53.4-27.9-133.5 0-127.3 62-189.8 62.1-62.7 173-62.7 103.9 0 164.3 61.4 60.4 61.2 60.4 181.4 0 85.1-28.2 140.6-28.3 55.1-80.4 82.4-52.1 26.9-123.8 26.9zm2-89.7q59.8 0 88.6-42.9 28.9-42.8 28.9-111.3 0-79.4-27.2-119.3-27.2-39.8-87.6-39.8-119.2 0-119.2 157.1 0 70.1 28.6 113.3 28.8 42.9 87.9 42.9z"/>
	<path id="R" class="s1" aria-label="R"  d="m1604.3 1194.1v335.3q0 10-4.3 13.9-4 3.7-13.9 3.7h-70.7q-10 0-14.3-3.7-4-3.9-4-13.9v-369.8q0-33.3 6-52.5 6.3-19.6 23.9-27.9 17.9-8.7 52.1-8.7h87.9q173.3 0 173.3 133.3 0 40.5-13.6 66.4-13.6 25.9-33.9 40.6-20.2 14.2-39.8 21.6v1.6q22.2 14.6 42.2 38.6 20.2 23.5 36.5 51.5 16.2 27.5 27.5 54.8 11.3 26.9 15.6 48.2 2 9.9 0 14.9-1.6 5-11.3 5h-76.6q-8.7 0-15.3-3.7-6.3-3.6-11.6-16.9-25.2-63.5-58.1-103.3-32.9-40.2-63.4-64.5-19.6-15.6-19.6-22.3 0-5.3 6.3-14.6 4-5.6 11.6-13.6 7.7-8 13.3-12 5.7-4 9-4.9 3.6-1 10.9-1 24.6 0 40.9-17 16.6-16.9 16.6-53.5 0-34.5-17.6-50.5-17.3-16.3-47.8-16.3h-19.9q-22 0-29.9 9.3-8 9.3-8 31.9z"/>
	<path id="R Extension Line" fill-rule="evenodd" class="s1" d="m1551 1071h40c7.73 0 14 6.27 14 14v949c0 7.73-6.27 14-14 14h-80c-7.73 0-14-6.27-14-14v-909c0-29.82 24.18-54 54-54z"/>
	<path id="H Extension Line" fill-rule="evenodd" class="s0" d="m473 0h80c7.73 0 14 6.27 14 14v950c0 7.73-6.27 14-14 14h-80c-7.73 0-14-6.27-14-14v-950c0-7.73 6.27-14 14-14z"/>
</svg>